<svg width="251" height="50" viewBox="0 0 251 50" fill="none" xmlns="http://www.w3.org/2000/svg">
<path opacity="0.2" d="M1 50L1 38" stroke="#014547" stroke-width="2"/>
<path opacity="0.2" d="M113 50L113 38" stroke="#014547" stroke-width="2"/>
<path opacity="0.2" d="M30 50L30 19" stroke="#014547" stroke-width="2"/>
<path opacity="0.2" d="M84 50L84 19" stroke="#014547" stroke-width="2"/>
<path opacity="0.2" d="M6 50L6 36" stroke="#014547" stroke-width="2"/>
<path opacity="0.2" d="M108 50L108 36" stroke="#014547" stroke-width="2"/>
<path opacity="0.2" d="M35 50L35 14" stroke="#014547" stroke-width="2"/>
<path opacity="0.2" d="M79 50L79 14" stroke="#014547" stroke-width="2"/>
<path opacity="0.2" d="M11 50L11 33" stroke="#014547" stroke-width="2"/>
<path opacity="0.2" d="M104 50L104 33" stroke="#014547" stroke-width="2"/>
<path opacity="0.2" d="M40 50L40 10" stroke="#014547" stroke-width="2"/>
<path opacity="0.2" d="M74 50L74 10" stroke="#014547" stroke-width="2"/>
<path opacity="0.2" d="M16 50L16 29" stroke="#014547" stroke-width="2"/>
<path opacity="0.2" d="M99 50L99 29" stroke="#014547" stroke-width="2"/>
<path opacity="0.2" d="M45 50L45 7" stroke="#014547" stroke-width="2"/>
<path opacity="0.2" d="M69 50L69 7" stroke="#014547" stroke-width="2"/>
<path opacity="0.2" d="M21 50L21 25" stroke="#014547" stroke-width="2"/>
<path opacity="0.2" d="M94 50L94 25" stroke="#014547" stroke-width="2"/>
<path opacity="0.2" d="M50 50L50 3" stroke="#014547" stroke-width="2"/>
<path opacity="0.2" d="M64 50L64 3" stroke="#014547" stroke-width="2"/>
<path opacity="0.2" d="M25 50L25 22" stroke="#014547" stroke-width="2"/>
<path opacity="0.2" d="M89 50L89 22" stroke="#014547" stroke-width="2"/>
<path opacity="0.2" d="M55 50L55 0" stroke="#014547" stroke-width="2"/>
<path opacity="0.2" d="M60 50L60 0" stroke="#014547" stroke-width="2"/>
<path opacity="0.2" d="M118 50L118 38" stroke="#014547" stroke-width="2"/>
<path d="M230 50L230 38" stroke="#014547" stroke-width="2"/>
<path d="M235 50L235 40" stroke="#014547" stroke-width="2"/>
<path d="M240 50L240 41" stroke="#014547" stroke-width="2"/>
<path d="M245 50L245 42" stroke="#014547" stroke-width="2"/>
<path d="M250 50L250 43" stroke="#014547" stroke-width="2"/>
<path d="M147 50L147 19" stroke="#014547" stroke-width="2"/>
<path d="M201 50L201 19" stroke="#014547" stroke-width="2"/>
<path opacity="0.2" d="M123 50L123 36" stroke="#014547" stroke-width="2"/>
<path d="M226 50L226 36" stroke="#014547" stroke-width="2"/>
<path d="M152 50L152 14" stroke="#014547" stroke-width="2"/>
<path d="M196 50L196 14" stroke="#014547" stroke-width="2"/>
<path opacity="0.2" d="M128 50L128 33" stroke="#014547" stroke-width="2"/>
<path d="M221 50L221 33" stroke="#014547" stroke-width="2"/>
<path d="M157 50L157 10" stroke="#014547" stroke-width="2"/>
<path d="M191 50L191 10" stroke="#014547" stroke-width="2"/>
<path opacity="0.2" d="M133 50L133 29" stroke="#014547" stroke-width="2"/>
<path d="M216 50L216 29" stroke="#014547" stroke-width="2"/>
<path d="M162 50L162 7" stroke="#014547" stroke-width="2"/>
<path d="M187 50L187 7" stroke="#014547" stroke-width="2"/>
<path d="M138 50L138 25" stroke="#014547" stroke-width="2"/>
<path d="M211 50L211 25" stroke="#014547" stroke-width="2"/>
<path d="M167 50L167 3" stroke="#014547" stroke-width="2"/>
<path d="M182 50L182 3" stroke="#014547" stroke-width="2"/>
<path d="M143 50L143 22" stroke="#014547" stroke-width="2"/>
<path d="M206 50L206 22" stroke="#014547" stroke-width="2"/>
<path d="M172 50L172 0" stroke="#014547" stroke-width="2"/>
<path d="M177 50L177 0" stroke="#014547" stroke-width="2"/>
</svg>
