<svg width="38" height="38" viewBox="0 0 38 38" fill="none" xmlns="http://www.w3.org/2000/svg">
<rect width="38" height="38" fill="#313131"/>
<g clip-path="url(#clip0_0_1)">
<rect width="1600" height="1024" transform="translate(-11 -267)" fill="white"/>
<mask id="path-1-inside-1_0_1" fill="white">
<path d="M-11 -267H49V757H-11V-267Z"/>
</mask>
<path d="M-11 -267H49V757H-11V-267Z" fill="white"/>
<path d="M48 -267V757H50V-267H48Z" fill="#C6C6C6" mask="url(#path-1-inside-1_0_1)"/>
<rect opacity="0.1" width="38" height="38" fill="#16161A"/>
<path fill-rule="evenodd" clip-rule="evenodd" d="M13.7188 12.5H22.3313C22.7484 14.5434 24.645 15.939 26.72 15.7294C28.795 15.5198 30.3742 13.773 30.3742 11.6875C30.3742 9.60194 28.795 7.85518 26.72 7.64556C24.645 7.43594 22.7484 8.83158 22.3313 10.875H13.7188C11.2508 10.875 9.25003 12.8757 9.25003 15.3437C9.25003 17.8118 11.2508 19.8125 13.7188 19.8125H22.6563C24.2268 19.8125 25.5 21.0857 25.5 22.6562C25.5 24.2268 24.2268 25.5 22.6563 25.5H15.6688C15.2517 23.4566 13.355 22.0609 11.28 22.2706C9.20505 22.4802 7.62585 24.2269 7.62585 26.3125C7.62585 28.398 9.20505 30.1448 11.28 30.3544C13.355 30.564 15.2517 29.1684 15.6688 27.125H22.6563C25.1243 27.125 27.125 25.1243 27.125 22.6562C27.125 20.1882 25.1243 18.1875 22.6563 18.1875H13.7188C12.1482 18.1875 10.875 16.9143 10.875 15.3437C10.875 13.7732 12.1482 12.5 13.7188 12.5ZM26.3125 9.24999C27.6587 9.24999 28.75 10.3413 28.75 11.6875C28.75 13.0337 27.6587 14.125 26.3125 14.125C24.9663 14.125 23.875 13.0337 23.875 11.6875C23.875 10.3413 24.9663 9.24999 26.3125 9.24999ZM11.6875 28.75C10.3413 28.75 9.25003 27.6587 9.25003 26.3125C9.25003 24.9663 10.3413 23.875 11.6875 23.875C13.0337 23.875 14.125 24.9663 14.125 26.3125C14.125 27.6587 13.0337 28.75 11.6875 28.75Z" fill="#16161A"/>
</g>
<defs>
<clipPath id="clip0_0_1">
<rect width="1600" height="1024" fill="white" transform="translate(-11 -267)"/>
</clipPath>
</defs>
</svg>
