<svg width="36" height="35" viewBox="0 0 36 35" fill="none" xmlns="http://www.w3.org/2000/svg">
<path d="M17.9076 17.0466H8.58397V14.2629C8.60618 12.8593 9.1959 11.5216 10.2237 10.5434C11.2516 9.56514 12.6336 9.02625 14.0665 9.04494H27.2507V0.000949767H9.86864C7.28849 -0.0347055 4.79949 0.934801 2.94889 2.69631C1.09829 4.45782 0.0375893 6.86712 0 9.39449L0 34.0923L8.58397 25.0483L17.9076 17.0466Z" fill="black"/>
<path d="M27.2507 9.04485L17.9076 17.0465H27.2507V19.8239C27.2302 21.2286 26.6412 22.5679 25.6132 23.5475C24.5852 24.5271 23.2022 25.0669 21.7681 25.0482H8.58398V34.0922H25.9531C28.5321 34.1261 31.0194 33.1559 32.8686 31.3946C34.7178 29.6332 35.7776 27.2249 35.8152 24.6986V0.000854492L27.2507 9.04485Z" fill="black"/>
</svg>
