<svg width="113" height="81" viewBox="0 0 113 81" fill="none" xmlns="http://www.w3.org/2000/svg">
<path fill-rule="evenodd" clip-rule="evenodd" d="M71.5 45.5H36.5V10.5H54V7H36.5C34.4 7 33 8.4 33 10.5V45.5C33 47.6 34.4 49 36.5 49H71.5C73.6 49 75 47.6 75 45.5V28H71.5V45.5ZM71.5 10.5V3.5H68V10.5H61V14H68V21H71.5V14H78.5V10.5H71.5Z" fill="#A87791"/>
<path fill-rule="evenodd" clip-rule="evenodd" d="M88.2 21.8V17H85.8V21.8H81V24.2H85.8V29H88.2V24.2H93V21.8H88.2Z" fill="#A87791"/>
<path fill-rule="evenodd" clip-rule="evenodd" d="M88.6 4.4V2H87.4V4.4H85V5.6H87.4V8H88.6V5.6H91V4.4H88.6Z" fill="#A87791"/>
<path d="M5.63965 67.8877C5.08822 67.8877 4.59147 67.9834 4.14941 68.1748C3.71191 68.3617 3.33822 68.6351 3.02832 68.9951C2.72298 69.3506 2.48828 69.7812 2.32422 70.2871C2.16016 70.793 2.07812 71.3626 2.07812 71.9961C2.07812 72.8346 2.20801 73.5638 2.46777 74.1836C2.7321 74.7988 3.12402 75.2751 3.64355 75.6123C4.16764 75.9495 4.82161 76.1182 5.60547 76.1182C6.05208 76.1182 6.47135 76.0817 6.86328 76.0088C7.25977 75.9313 7.64486 75.8356 8.01855 75.7217V76.7334C7.65397 76.8701 7.27116 76.9704 6.87012 77.0342C6.46908 77.1025 5.99284 77.1367 5.44141 77.1367C4.42513 77.1367 3.5752 76.9271 2.8916 76.5078C2.21257 76.084 1.70215 75.487 1.36035 74.7168C1.02311 73.9466 0.854492 73.0374 0.854492 71.9893C0.854492 71.2327 0.95931 70.5423 1.16895 69.918C1.38314 69.2891 1.69303 68.7467 2.09863 68.291C2.50879 67.8353 3.01009 67.4844 3.60254 67.2383C4.19954 66.9876 4.88314 66.8623 5.65332 66.8623C6.15918 66.8623 6.64681 66.9124 7.11621 67.0127C7.58561 67.113 8.00944 67.2565 8.3877 67.4434L7.92285 68.4277C7.60384 68.2819 7.25293 68.1566 6.87012 68.0518C6.49186 67.9424 6.08171 67.8877 5.63965 67.8877ZM13.5789 69.3711C13.7293 69.3711 13.8866 69.3802 14.0506 69.3984C14.2147 69.4121 14.3605 69.4326 14.4881 69.46L14.3446 70.5127C14.2215 70.4808 14.0848 70.4557 13.9344 70.4375C13.784 70.4193 13.6427 70.4102 13.5106 70.4102C13.2098 70.4102 12.925 70.4717 12.6561 70.5947C12.3918 70.7132 12.1593 70.8864 11.9588 71.1143C11.7583 71.3376 11.6011 71.6087 11.4871 71.9277C11.3732 72.2422 11.3162 72.5931 11.3162 72.9805V77H10.1746V69.5078H11.118L11.2411 70.8887H11.2889C11.4439 70.6107 11.6307 70.3577 11.8495 70.1299C12.0682 69.8975 12.3211 69.7129 12.6082 69.5762C12.8999 69.4395 13.2235 69.3711 13.5789 69.3711ZM18.9479 69.3711C19.586 69.3711 20.1328 69.5124 20.5886 69.7949C21.0443 70.0775 21.3929 70.474 21.6345 70.9844C21.876 71.4902 21.9968 72.0827 21.9968 72.7617V73.4658H16.822C16.8356 74.3454 17.0544 75.0153 17.4782 75.4756C17.902 75.9359 18.499 76.166 19.2692 76.166C19.7432 76.166 20.1624 76.1227 20.527 76.0361C20.8916 75.9495 21.2699 75.8219 21.6618 75.6533V76.6514C21.2835 76.82 20.9076 76.943 20.5339 77.0205C20.1647 77.098 19.7272 77.1367 19.2214 77.1367C18.5013 77.1367 17.8724 76.9909 17.3346 76.6992C16.8014 76.403 16.3867 75.9701 16.0905 75.4004C15.7943 74.8307 15.6462 74.1335 15.6462 73.3086C15.6462 72.502 15.7806 71.8047 16.0495 71.2168C16.3229 70.6243 16.7057 70.1686 17.1979 69.8496C17.6947 69.5306 18.278 69.3711 18.9479 69.3711ZM18.9343 70.3008C18.3281 70.3008 17.8451 70.499 17.485 70.8955C17.125 71.292 16.9108 71.8457 16.8425 72.5566H20.8073C20.8027 72.11 20.7321 71.7181 20.5954 71.3809C20.4632 71.0391 20.2604 70.7747 19.987 70.5879C19.7136 70.3965 19.3626 70.3008 18.9343 70.3008ZM26.8872 69.3848C27.7805 69.3848 28.4435 69.5853 28.8765 69.9863C29.3094 70.3874 29.5259 71.0277 29.5259 71.9072V77H28.6987L28.48 75.8926H28.4253C28.2157 76.166 27.9969 76.3962 27.7691 76.583C27.5412 76.7653 27.2769 76.9043 26.9761 77C26.6799 77.0911 26.3153 77.1367 25.8823 77.1367C25.4266 77.1367 25.021 77.057 24.6655 76.8975C24.3146 76.738 24.0366 76.4964 23.8316 76.1729C23.631 75.8493 23.5308 75.4391 23.5308 74.9424C23.5308 74.195 23.827 73.6208 24.4195 73.2197C25.0119 72.8187 25.9142 72.5999 27.1265 72.5635L28.4185 72.5088V72.0508C28.4185 71.4036 28.2795 70.9502 28.0015 70.6904C27.7235 70.4307 27.3316 70.3008 26.8257 70.3008C26.4338 70.3008 26.0601 70.3577 25.7046 70.4717C25.3491 70.5856 25.0119 70.7201 24.6929 70.875L24.3443 70.0137C24.6815 69.8405 25.0689 69.6924 25.5064 69.5693C25.9439 69.4463 26.4042 69.3848 26.8872 69.3848ZM28.4048 73.3086L27.2632 73.3564C26.329 73.3929 25.6704 73.5456 25.2876 73.8145C24.9048 74.0833 24.7134 74.4639 24.7134 74.9561C24.7134 75.3844 24.8433 75.7012 25.103 75.9062C25.3628 76.1113 25.7069 76.2139 26.1353 76.2139C26.8006 76.2139 27.3452 76.0293 27.7691 75.6602C28.1929 75.291 28.4048 74.7373 28.4048 73.999V73.3086ZM34.4437 76.207C34.6306 76.207 34.822 76.1911 35.0179 76.1592C35.2139 76.1273 35.3734 76.0885 35.4964 76.043V76.9248C35.3643 76.984 35.1797 77.0342 34.9427 77.0752C34.7103 77.1162 34.4824 77.1367 34.2591 77.1367C33.8627 77.1367 33.5026 77.0684 33.1791 76.9316C32.8555 76.7904 32.5957 76.5534 32.3998 76.2207C32.2084 75.888 32.1127 75.4277 32.1127 74.8398V70.3965H31.0462V69.8428L32.1195 69.3984L32.5707 67.7715H33.2543V69.5078H35.4486V70.3965H33.2543V74.8057C33.2543 75.2751 33.3614 75.626 33.5755 75.8584C33.7943 76.0908 34.0837 76.207 34.4437 76.207ZM40.0588 69.3711C40.6968 69.3711 41.2437 69.5124 41.6994 69.7949C42.1551 70.0775 42.5038 70.474 42.7453 70.9844C42.9868 71.4902 43.1076 72.0827 43.1076 72.7617V73.4658H37.9328C37.9465 74.3454 38.1652 75.0153 38.5891 75.4756C39.0129 75.9359 39.6099 76.166 40.3801 76.166C40.854 76.166 41.2733 76.1227 41.6379 76.0361C42.0025 75.9495 42.3807 75.8219 42.7727 75.6533V76.6514C42.3944 76.82 42.0184 76.943 41.6447 77.0205C41.2756 77.098 40.8381 77.1367 40.3322 77.1367C39.6122 77.1367 38.9833 76.9909 38.4455 76.6992C37.9123 76.403 37.4976 75.9701 37.2014 75.4004C36.9051 74.8307 36.757 74.1335 36.757 73.3086C36.757 72.502 36.8915 71.8047 37.1604 71.2168C37.4338 70.6243 37.8166 70.1686 38.3088 69.8496C38.8055 69.5306 39.3889 69.3711 40.0588 69.3711ZM40.0451 70.3008C39.439 70.3008 38.9559 70.499 38.5959 70.8955C38.2359 71.292 38.0217 71.8457 37.9533 72.5566H41.9182C41.9136 72.11 41.843 71.7181 41.7062 71.3809C41.5741 71.0391 41.3713 70.7747 41.0979 70.5879C40.8244 70.3965 40.4735 70.3008 40.0451 70.3008ZM51.7948 69.3848C52.688 69.3848 53.3511 69.5853 53.7841 69.9863C54.217 70.3874 54.4335 71.0277 54.4335 71.9072V77H53.6063L53.3876 75.8926H53.3329C53.1233 76.166 52.9045 76.3962 52.6766 76.583C52.4488 76.7653 52.1845 76.9043 51.8837 77C51.5874 77.0911 51.2229 77.1367 50.7899 77.1367C50.3342 77.1367 49.9286 77.057 49.5731 76.8975C49.2222 76.738 48.9442 76.4964 48.7391 76.1729C48.5386 75.8493 48.4384 75.4391 48.4384 74.9424C48.4384 74.195 48.7346 73.6208 49.327 73.2197C49.9195 72.8187 50.8218 72.5999 52.0341 72.5635L53.3261 72.5088V72.0508C53.3261 71.4036 53.1871 70.9502 52.9091 70.6904C52.6311 70.4307 52.2391 70.3008 51.7333 70.3008C51.3414 70.3008 50.9677 70.3577 50.6122 70.4717C50.2567 70.5856 49.9195 70.7201 49.6005 70.875L49.2518 70.0137C49.5891 69.8405 49.9764 69.6924 50.4139 69.5693C50.8514 69.4463 51.3117 69.3848 51.7948 69.3848ZM53.3124 73.3086L52.1708 73.3564C51.2365 73.3929 50.578 73.5456 50.1952 73.8145C49.8124 74.0833 49.621 74.4639 49.621 74.9561C49.621 75.3844 49.7509 75.7012 50.0106 75.9062C50.2704 76.1113 50.6145 76.2139 51.0429 76.2139C51.7082 76.2139 52.2528 76.0293 52.6766 75.6602C53.1005 75.291 53.3124 74.7373 53.3124 73.999V73.3086ZM64.2759 69.3711C65.1646 69.3711 65.8368 69.5898 66.2925 70.0273C66.7483 70.4603 66.9761 71.1576 66.9761 72.1191V77H65.855V72.1943C65.855 71.57 65.7115 71.1029 65.4244 70.793C65.1418 70.4831 64.7066 70.3281 64.1187 70.3281C63.2893 70.3281 62.7059 70.5628 62.3687 71.0322C62.0315 71.5016 61.8629 72.1829 61.8629 73.0762V77H60.7281V69.5078H61.6441L61.815 70.5879H61.8765C62.036 70.3236 62.2388 70.1025 62.4849 69.9248C62.731 69.7425 63.0067 69.6058 63.3121 69.5146C63.6174 69.4189 63.9387 69.3711 64.2759 69.3711ZM72.3588 69.3711C72.9968 69.3711 73.5437 69.5124 73.9994 69.7949C74.4551 70.0775 74.8038 70.474 75.0453 70.9844C75.2868 71.4902 75.4076 72.0827 75.4076 72.7617V73.4658H70.2328C70.2465 74.3454 70.4652 75.0153 70.8891 75.4756C71.3129 75.9359 71.9099 76.166 72.6801 76.166C73.154 76.166 73.5733 76.1227 73.9379 76.0361C74.3025 75.9495 74.6807 75.8219 75.0727 75.6533V76.6514C74.6944 76.82 74.3184 76.943 73.9447 77.0205C73.5756 77.098 73.1381 77.1367 72.6322 77.1367C71.9122 77.1367 71.2833 76.9909 70.7455 76.6992C70.2123 76.403 69.7976 75.9701 69.5014 75.4004C69.2051 74.8307 69.057 74.1335 69.057 73.3086C69.057 72.502 69.1915 71.8047 69.4604 71.2168C69.7338 70.6243 70.1166 70.1686 70.6088 69.8496C71.1055 69.5306 71.6889 69.3711 72.3588 69.3711ZM72.3451 70.3008C71.739 70.3008 71.2559 70.499 70.8959 70.8955C70.5359 71.292 70.3217 71.8457 70.2533 72.5566H74.2182C74.2136 72.11 74.143 71.7181 74.0062 71.3809C73.8741 71.0391 73.6713 70.7747 73.3979 70.5879C73.1244 70.3965 72.7735 70.3008 72.3451 70.3008ZM83.593 76.9863L82.26 72.625C82.2008 72.4382 82.1438 72.2559 82.0891 72.0781C82.039 71.8958 81.9911 71.7227 81.9455 71.5586C81.9045 71.39 81.8658 71.235 81.8293 71.0938C81.7974 70.9479 81.7701 70.8226 81.7473 70.7178H81.6995C81.6812 70.8226 81.6562 70.9479 81.6243 71.0938C81.5924 71.235 81.5536 71.39 81.508 71.5586C81.467 71.7272 81.4215 71.9049 81.3713 72.0918C81.3212 72.2741 81.2642 72.4587 81.2004 72.6455L79.8059 76.9863H78.5276L76.4631 69.4941H77.6389L78.719 73.6299C78.7919 73.9033 78.8603 74.1745 78.9241 74.4434C78.9924 74.7077 79.0494 74.9583 79.095 75.1953C79.1451 75.4277 79.1816 75.6305 79.2043 75.8037H79.259C79.2864 75.6898 79.316 75.5531 79.3479 75.3936C79.3844 75.234 79.4231 75.0654 79.4641 74.8877C79.5097 74.7054 79.5575 74.5254 79.6077 74.3477C79.6578 74.1654 79.7079 73.9945 79.758 73.835L81.1389 69.4941H82.3625L83.6955 73.8281C83.7639 74.0469 83.83 74.2747 83.8938 74.5117C83.9622 74.7487 84.0237 74.9788 84.0784 75.2021C84.133 75.4209 84.1718 75.6169 84.1946 75.79H84.2493C84.2675 75.6351 84.3017 75.4437 84.3518 75.2158C84.4019 74.988 84.4589 74.7373 84.5227 74.4639C84.5911 74.1904 84.6617 73.9124 84.7346 73.6299L85.8284 69.4941H86.9836L84.9123 76.9863H83.593ZM91.0361 79.6318C90.8082 79.6318 90.6077 79.6159 90.4345 79.584C90.2613 79.5521 90.1132 79.5088 89.9902 79.4541V78.4629C90.136 78.5085 90.2932 78.5426 90.4618 78.5654C90.6305 78.5928 90.8127 78.6064 91.0087 78.6064C91.2639 78.6064 91.4986 78.5563 91.7128 78.4561C91.927 78.3558 92.0979 78.1849 92.2255 77.9434C92.3531 77.7018 92.4169 77.3691 92.4169 76.9453V67.0059H93.5859V76.8564C93.5859 77.4808 93.481 77.998 93.2714 78.4082C93.0663 78.8184 92.7724 79.1237 92.3896 79.3242C92.0113 79.5293 91.5601 79.6318 91.0361 79.6318ZM102.687 73.2402C102.687 73.8555 102.608 74.4046 102.448 74.8877C102.289 75.3708 102.058 75.7786 101.758 76.1113C101.457 76.444 101.092 76.6992 100.664 76.877C100.24 77.0501 99.7592 77.1367 99.2214 77.1367C98.7201 77.1367 98.2599 77.0501 97.8406 76.877C97.4259 76.6992 97.0658 76.444 96.7605 76.1113C96.4597 75.7786 96.225 75.3708 96.0564 74.8877C95.8923 74.4046 95.8103 73.8555 95.8103 73.2402C95.8103 72.4199 95.9493 71.7227 96.2273 71.1484C96.5053 70.5697 96.9018 70.1299 97.4168 69.8291C97.9363 69.5238 98.5538 69.3711 99.2693 69.3711C99.9529 69.3711 100.55 69.5238 101.06 69.8291C101.575 70.1344 101.974 70.5765 102.257 71.1553C102.544 71.7295 102.687 72.4245 102.687 73.2402ZM96.9861 73.2402C96.9861 73.8418 97.0658 74.3636 97.2253 74.8057C97.3849 75.2477 97.6309 75.5895 97.9636 75.8311C98.2963 76.0726 98.7247 76.1934 99.2488 76.1934C99.7683 76.1934 100.194 76.0726 100.527 75.8311C100.864 75.5895 101.113 75.2477 101.272 74.8057C101.432 74.3636 101.511 73.8418 101.511 73.2402C101.511 72.6432 101.432 72.1283 101.272 71.6953C101.113 71.2578 100.867 70.9206 100.534 70.6836C100.201 70.4466 99.7706 70.3281 99.242 70.3281C98.4627 70.3281 97.8907 70.5856 97.5261 71.1006C97.1661 71.6156 96.9861 72.3288 96.9861 73.2402ZM105.944 66.3633V69.0225C105.944 69.3278 105.935 69.624 105.917 69.9111C105.903 70.1982 105.892 70.4215 105.882 70.5811H105.944C106.149 70.2438 106.445 69.959 106.833 69.7266C107.22 69.4941 107.714 69.3779 108.316 69.3779C109.255 69.3779 110.002 69.7038 110.558 70.3555C111.119 71.0026 111.399 71.9665 111.399 73.2471C111.399 74.0902 111.271 74.8011 111.016 75.3799C110.761 75.9587 110.401 76.3962 109.936 76.6924C109.471 76.9886 108.922 77.1367 108.289 77.1367C107.696 77.1367 107.209 77.0273 106.826 76.8086C106.448 76.5853 106.156 76.3141 105.951 75.9951H105.862L105.629 77H104.809V66.3633H105.944ZM108.131 70.3281C107.589 70.3281 107.158 70.4352 106.839 70.6494C106.52 70.859 106.29 71.1781 106.149 71.6064C106.012 72.0303 105.944 72.568 105.944 73.2197V73.2812C105.944 74.2246 106.101 74.9469 106.416 75.4482C106.73 75.945 107.302 76.1934 108.131 76.1934C108.829 76.1934 109.351 75.9382 109.697 75.4277C110.048 74.9173 110.223 74.1882 110.223 73.2402C110.223 72.2741 110.05 71.5472 109.704 71.0596C109.362 70.5719 108.838 70.3281 108.131 70.3281Z" fill="#9C9C9C"/>
</svg>
