<svg width="18" height="24" viewBox="0 0 18 24" fill="none" xmlns="http://www.w3.org/2000/svg">
<path fill-rule="evenodd" clip-rule="evenodd" d="M16.319 2.25H9.81897V0.625H8.19397V2.25H1.69397C0.796507 2.25 0.0689697 2.97754 0.0689697 3.875V15.25C0.0689697 16.1475 0.796507 16.875 1.69397 16.875H8.19397V21.75H4.94397V23.375H13.069V21.75H9.81897V16.875H16.319C17.2164 16.875 17.944 16.1475 17.944 15.25V3.875C17.944 2.97754 17.2164 2.25 16.319 2.25ZM16.319 15.25H1.69397V3.875H16.319V15.25ZM9.81247 7.125H8.18747V13.625H9.81247V7.125ZM12.25 10.375H13.875V13.625H12.25V10.375ZM5.74997 8.75H4.12497V13.625H5.74997V8.75Z" fill="#16161A"/>
</svg>
