<svg width="38" height="38" viewBox="0 0 38 38" fill="none" xmlns="http://www.w3.org/2000/svg">
<path fill-rule="evenodd" clip-rule="evenodd" d="M19 0.625C8.85177 0.625 0.625 8.85177 0.625 19C0.625 29.1482 8.85177 37.375 19 37.375C29.1482 37.375 37.375 29.1482 37.375 19C37.375 14.1266 35.4391 9.45289 31.9931 6.00691C28.5471 2.56093 23.8734 0.625 19 0.625ZM19 7.1875C22.2619 7.1875 24.9062 9.83182 24.9062 13.0938C24.9062 16.3557 22.2619 19 19 19C15.7381 19 13.0937 16.3557 13.0937 13.0938C13.0903 11.5262 13.7114 10.0219 14.8198 8.91354C15.9282 7.80515 17.4325 7.18401 19 7.1875ZM29.5 30.7075C23.5375 36.0973 14.4625 36.0973 8.5 30.7075V29.9462C8.39655 26.2061 11.3237 23.08 15.0625 22.9375H22.9375C26.6575 23.0868 29.5745 26.1846 29.5 29.9069V30.7075Z" fill="#014547"/>
</svg>
