<svg width="18" height="18" viewBox="0 0 18 18" fill="none" xmlns="http://www.w3.org/2000/svg">
<path fill-rule="evenodd" clip-rule="evenodd" d="M15.25 12.75C14.8086 12.7522 14.3762 12.8754 14 13.1062L12.0688 11.1687C12.9897 9.86959 12.9897 8.13041 12.0688 6.83125L14 4.89375C14.3762 5.12462 14.8086 5.24784 15.25 5.25C16.6307 5.25 17.75 4.13071 17.75 2.75C17.75 1.36929 16.6307 0.25 15.25 0.25C13.8693 0.25 12.75 1.36929 12.75 2.75C12.7522 3.19141 12.8754 3.62377 13.1062 4L11.1687 5.93125C9.86959 5.01025 8.13041 5.01025 6.83125 5.93125L4.89375 4C5.12462 3.62377 5.24784 3.19141 5.25 2.75C5.25 1.36929 4.13071 0.25 2.75 0.25C1.36929 0.25 0.25 1.36929 0.25 2.75C0.25 4.13071 1.36929 5.25 2.75 5.25C3.19141 5.24784 3.62377 5.12462 4 4.89375L5.93125 6.83125C5.01025 8.13041 5.01025 9.86959 5.93125 11.1687L4 13.1062C3.62377 12.8754 3.19141 12.7522 2.75 12.75C1.36929 12.75 0.25 13.8693 0.25 15.25C0.25 16.6307 1.36929 17.75 2.75 17.75C4.13071 17.75 5.25 16.6307 5.25 15.25C5.24784 14.8086 5.12462 14.3762 4.89375 14L6.83125 12.0688C8.13041 12.9897 9.86959 12.9897 11.1687 12.0688L13.1062 14C12.8754 14.3762 12.7522 14.8086 12.75 15.25C12.75 16.6307 13.8693 17.75 15.25 17.75C16.6307 17.75 17.75 16.6307 17.75 15.25C17.75 13.8693 16.6307 12.75 15.25 12.75ZM9 11.5C7.61929 11.5 6.5 10.3807 6.5 9C6.5 7.61929 7.61929 6.5 9 6.5C10.3807 6.5 11.5 7.61929 11.5 9C11.5 9.66304 11.2366 10.2989 10.7678 10.7678C10.2989 11.2366 9.66304 11.5 9 11.5Z" fill="#16161A"/>
</svg>
