<svg width="38" height="38" viewBox="0 0 38 38" fill="none" xmlns="http://www.w3.org/2000/svg">
<rect width="38" height="38" fill="#313131"/>
<g clip-path="url(#clip0_0_1)">
<rect width="1600" height="1024" transform="translate(-11 -113)" fill="white"/>
<mask id="path-1-inside-1_0_1" fill="white">
<path d="M-11 -113H49V911H-11V-113Z"/>
</mask>
<path d="M-11 -113H49V911H-11V-113Z" fill="white"/>
<path d="M48 -113V911H50V-113H48Z" fill="#C6C6C6" mask="url(#path-1-inside-1_0_1)"/>
<rect width="38" height="38" fill="#014547"/>
<g filter="url(#filter0_d_0_1)">
<path fill-rule="evenodd" clip-rule="evenodd" d="M9.79437 28.75L14.9863 19L20.9175 24.2731C21.2939 24.6075 21.804 24.7486 22.2987 24.655C22.7981 24.5615 23.225 24.2398 23.4525 23.7856L27.9375 14.8562L26.4587 14.125L21.9981 23.0625L16.0669 17.7894C15.7001 17.4482 15.1964 17.2954 14.7019 17.375C14.2136 17.456 13.7889 17.7551 13.5481 18.1875L9.25 26.3125V7.625H7.625V28.75C7.625 29.6475 8.35254 30.375 9.25 30.375H30.375V28.75H9.79437Z" fill="white"/>
</g>
</g>
<defs>
<filter id="filter0_d_0_1" x="-6" y="0" width="50" height="50" filterUnits="userSpaceOnUse" color-interpolation-filters="sRGB">
<feFlood flood-opacity="0" result="BackgroundImageFix"/>
<feColorMatrix in="SourceAlpha" type="matrix" values="0 0 0 0 0 0 0 0 0 0 0 0 0 0 0 0 0 0 127 0" result="hardAlpha"/>
<feOffset dy="6"/>
<feGaussianBlur stdDeviation="6"/>
<feColorMatrix type="matrix" values="0 0 0 0 0.658824 0 0 0 0 0.466667 0 0 0 0 0.568627 0 0 0 0.25 0"/>
<feBlend mode="normal" in2="BackgroundImageFix" result="effect1_dropShadow_0_1"/>
<feBlend mode="normal" in="SourceGraphic" in2="effect1_dropShadow_0_1" result="shape"/>
</filter>
<clipPath id="clip0_0_1">
<rect width="1600" height="1024" fill="white" transform="translate(-11 -113)"/>
</clipPath>
</defs>
</svg>
