<svg width="18" height="18" viewBox="0 0 18 18" fill="none" xmlns="http://www.w3.org/2000/svg">
<path fill-rule="evenodd" clip-rule="evenodd" d="M15.875 9.47501V8.51876L17.075 7.46876C17.5317 7.06623 17.632 6.39322 17.3125 5.87501L15.8375 3.37501C15.6144 2.98866 15.2023 2.75047 14.7562 2.75001C14.6204 2.74897 14.4853 2.77008 14.3562 2.81251L12.8375 3.32501C12.5753 3.15077 12.3017 2.99417 12.0187 2.85626L11.7 1.28126C11.582 0.687368 11.0554 0.263411 10.45 0.275013H7.52497C6.91958 0.263411 6.39293 0.687368 6.27497 1.28126L5.95622 2.85626C5.67118 2.99414 5.39557 3.15073 5.13122 3.32501L3.64372 2.78751C3.51328 2.75353 3.3782 2.74086 3.24372 2.75001C2.79759 2.75047 2.38553 2.98866 2.16247 3.37501L0.687467 5.87501C0.386593 6.3919 0.494007 7.04948 0.943717 7.44376L2.12497 8.52501V9.48126L0.943717 10.5313C0.480749 10.9288 0.372433 11.6024 0.687467 12.125L2.16247 14.625C2.38553 15.0114 2.79759 15.2496 3.24372 15.25C3.37956 15.2511 3.51467 15.2299 3.64372 15.1875L5.16247 14.675C5.42468 14.8493 5.6982 15.0059 5.98122 15.1438L6.29997 16.7188C6.41793 17.3127 6.94458 17.7366 7.54997 17.725H10.5C11.1054 17.7366 11.632 17.3127 11.75 16.7188L12.0687 15.1438C12.3538 15.0059 12.6294 14.8493 12.8937 14.675L14.4062 15.1875C14.5353 15.2299 14.6704 15.2511 14.8062 15.25C15.2523 15.2496 15.6644 15.0114 15.8875 14.625L17.3125 12.125C17.6133 11.6081 17.5059 10.9505 17.0562 10.5563L15.875 9.47501ZM5.24997 9.00134C5.24997 11.0724 6.9289 12.7513 8.99997 12.7513C9.9976 12.7615 10.9573 12.3696 11.6628 11.6642C12.3683 10.9587 12.7601 9.99898 12.75 9.00134C12.75 6.93027 11.071 5.25134 8.99997 5.25134C6.9289 5.25134 5.24997 6.93027 5.24997 9.00134ZM7.21506 7.21644C7.68732 6.74418 8.33228 6.48579 8.99997 6.50134C9.66766 6.48579 10.3126 6.74418 10.7849 7.21644C11.2571 7.68869 11.5155 8.33365 11.5 9.00134C11.5155 9.66903 11.2571 10.314 10.7849 10.7862C10.3126 11.2585 9.66766 11.5169 8.99997 11.5013C8.33228 11.5169 7.68732 11.2585 7.21506 10.7862C6.74281 10.314 6.48442 9.66903 6.49997 9.00134C6.48442 8.33365 6.74281 7.68869 7.21506 7.21644ZM12.6125 13.275L14.7562 14L16.2312 11.5L14.5312 9.95626C14.6468 9.3093 14.6468 8.64698 14.5312 8.00001L16.2312 6.50001L14.7562 4.00001L12.6062 4.70001C12.1026 4.28073 11.5322 3.94903 10.9187 3.71876L10.475 1.50001H7.52497L7.08122 3.74376C6.46284 3.96767 5.8893 4.29994 5.38747 4.72501L3.24372 4.00001L1.76872 6.50001L3.46872 8.04376C3.35315 8.69073 3.35315 9.35305 3.46872 10L1.76872 11.5L3.24372 14L5.39372 13.3C5.89729 13.7193 6.46773 14.051 7.08122 14.2813L7.52497 16.5H10.475L10.9187 14.2563C11.5371 14.0324 12.1106 13.7001 12.6125 13.275Z" fill="#16161A"/>
</svg>
